<?xml version="1.0" encoding="UTF-8"?>
<svg id="Layer_1" xmlns="http://www.w3.org/2000/svg" version="1.1" viewBox="0 0 324.6 243.8">
  <!-- Generator: Adobe Illustrator 29.4.0, SVG Export Plug-In . SVG Version: 2.1.0 Build 152)  -->
  <defs>
    <style>
      .st0 {
        fill: #fff;
      }

      .st1, .st2 {
        fill: none;
      }

      .st2 {
        stroke: #fff;
        stroke-miterlimit: 10;
        stroke-width: 3px;
      }
    </style>
  </defs>
  <polyline class="st1" points="-384.2 284.6 -384.2 257.8 -384.2 251.7 -384.2 227.1 -384.2 221.5 -384.2 49.6 -384.2 44.2 -384.2 20.6 -384.2 13.9 -384.2 -13.2"/>
  <g>
    <path class="st0" d="M251.7,34.4L164,0c-.6,0-1.2,0-1.7,0s-1.1,0-1.7,0l-87.7,34.4L0,122.2l72.9,87.2,89.4,34.4,89.4-34.4,72.9-87.2-72.9-87.8ZM239.2,170.8c23.4-37.6,16.4-86.6-15.4-116.9h0c0,0,92,67,92,67l-90.4,68,13.9-18.1h0ZM162.3,207.5c-31.7-.2-63-17.7-77.6-50-23.9-52.8,11.1-115.7,68.9-121.4,3-.3,5.8-.4,8.7-.4s5.8.2,8.7.4c57.8,5.7,92.8,68.6,68.9,121.4-14.6,32.3-45.9,49.8-77.6,50h0ZM254.7,47.3c15.2,18.1,30.7,36,45.9,54,.9,1.1,2.4,1.6,2,3.5l-85.9-65h33c.8,2.6,3.3,5.4,5,7.5ZM234.8,33.8c-8.8.3-17.4,1.8-26.3.8l-27.7-21.8,54,21ZM162.3,6.6l45.4,34.7-22-8c-8-2-15.7-3-23.4-3.1-7.7,0-15.4,1-23.4,3.1l-22,8L162.3,6.6ZM143.8,12.8l-27.7,21.8c-8.9,1-17.5-.5-26.3-.8l54-21ZM24,101.3c15.2-18,30.7-35.9,45.9-54,1.7-2.1,4.2-4.9,5-7.5h33L22,104.8c-.4-1.9,1.1-2.4,2-3.5ZM100.9,53.8h0c-31.8,30.4-38.8,79.4-15.4,117l13.9,18.1L9,120.9,101,53.9h0ZM33.9,154.3l-12-15.5,86.9,65h-32.5l-42.4-49.5h0ZM90.8,209.9c8.3-1.7,16.9-1,25.3-.8l26.7,20.8-52-20ZM112.9,198.9c6.2,2.7,11.9,6.7,18.4,9,9.7,3.5,20.4,5.2,31,5.2s21.3-1.7,31-5.2c6.5-2.3,12.2-6.3,18.4-9l-49.4,38.8-49.4-38.8ZM181.8,229.9l26.7-20.8c8.4-.2,17-.9,25.3.8l-52,20ZM290.7,154.3l-42.4,49.5h-32.5l86.9-65-12,15.5h0Z"/>
    <path class="st2" d="M123.8,137.7c-6.1-15-3.1-32.8,9-45,12.2-12.2,30.2-15.2,45.2-9h0"/>
    <path class="st2" d="M200.4,106.1c6.2,15,3.3,33-9,45.2-12.2,12.2-30,15.2-45,9"/>
    <path class="st2" d="M112.6,140.3c-6.9-18.8-2.9-40.6,12.2-55.7s37.1-19.2,55.9-12.1"/>
    <path class="st2" d="M211.6,103.4c7,18.8,3,40.8-12.1,55.9s-36.9,19.1-55.7,12.2"/>
    <path class="st2" d="M101.4,142.9c-7.7-22.5-2.6-48.4,15.3-66.4,18-18,44-23.1,66.6-15.2"/>
    <path class="st2" d="M222.8,100.8c7.8,22.5,2.8,48.6-15.2,66.6-18,17.9-43.9,23-66.4,15.3"/>
    <circle class="st0" cx="162.3" cy="121.8" r="11"/>
  </g>
</svg>